<svg xmlns="http://www.w3.org/2000/svg" viewBox="0 0 100 100" width="100" height="100">
  <defs>
    <radialGradient id="eggGold" cx="38%" cy="32%" r="65%">
      <stop offset="0%" stop-color="#FFF0A0"/>
      <stop offset="30%" stop-color="#F5C842"/>
      <stop offset="70%" stop-color="#C8980A"/>
      <stop offset="100%" stop-color="#8B6400"/>
    </radialGradient>
    <radialGradient id="highlight" cx="35%" cy="28%" r="30%">
      <stop offset="0%" stop-color="#FFFDE0" stop-opacity="0.7"/>
      <stop offset="100%" stop-color="#FFFDE0" stop-opacity="0"/>
    </radialGradient>
  </defs>
  <!-- Egg shape: wider at bottom, narrower at top -->
  <path d="M50,8 C28,8 14,32 14,55 C14,76 30,94 50,94 C70,94 86,76 86,55 C86,32 72,8 50,8 Z" fill="url(#eggGold)"/>
  <!-- Highlight -->
  <path d="M50,8 C28,8 14,32 14,55 C14,76 30,94 50,94 C70,94 86,76 86,55 C86,32 72,8 50,8 Z" fill="url(#highlight)"/>
</svg>
